<?xml version="1.0" encoding="UTF-8" ?>
<!DOCTYPE svg PUBLIC "-//W3C//DTD SVG 1.1//EN" "http://www.w3.org/Graphics/SVG/1.1/DTD/svg11.dtd">
<svg width="14pt" height="20pt" viewBox="0 0 14 20" version="1.1" xmlns="http://www.w3.org/2000/svg">
<g id="#a1c100ff">
<path fill="#a1c100" opacity="1.00" d=" M 0.77 0.00 L 13.27 0.00 L 13.27 0.73 L 14.00 0.73 L 14.00 3.87 L 13.01 4.13 L 13.00 3.00 L 12.00 3.00 L 12.00 2.00 C 10.67 2.00 9.33 2.00 8.00 2.00 C 8.00 4.75 8.00 10.25 8.00 13.00 C 8.75 13.00 10.25 13.00 11.00 13.00 C 11.00 13.50 11.00 14.50 11.00 15.00 C 8.33 15.00 5.67 15.00 3.00 15.00 C 3.00 14.50 3.00 13.50 3.00 13.00 C 3.75 13.00 5.25 13.00 6.00 13.00 C 6.00 10.25 6.00 4.75 6.00 2.00 C 4.67 2.00 3.33 2.00 2.00 2.00 L 2.00 3.00 L 1.00 3.00 L 0.99 4.13 L 0.00 3.87 L 0.00 0.73 L 0.68 0.74 L 0.77 0.00 Z" />
<path fill="#a1c100" opacity="1.00" d=" M 1.00 18.00 C 5.00 18.00 9.00 18.00 13.00 18.00 C 13.00 18.50 13.00 19.50 13.00 20.00 L 1.00 20.00 C 1.00 19.50 1.00 18.50 1.00 18.00 Z" />
</g>
</svg>
